# xmcd
#
# Track frame offsets:
#	150
#	16855
#	34017
#	45281
#	53111
#	57708
#
# Disc length: 989 seconds
#
# Revision: 1
# Processed by: cddbd v1.5.2PL0 Copyright (c) Steve Scherf et al.
# Submitted via: audiograbber 1.83.01
#
DISCID=4403db06
DTITLE=Various Artist - Hesen Robotti Disco Vol 1
DYEAR=2006
DGENRE=Pop
TTITLE0=T. Bird - Jänis Istui Maassa
TTITLE1=Vinnie Robot - RobottiDisco
TTITLE2=Liquid - Täti Monika
TTITLE3=Liquid - Jos Sul Lysti On
TTITLE4=Tonto - Hesburger
TTITLE5=T. Bird - Jänis Istui Maassa (Karaoke)
EXTD=TR.
EXTT0=
EXTT1=
EXTT2=
EXTT3=
EXTT4=
EXTT5=
PLAYORDER=
